<svg width="670" height="684" viewBox="0 0 670 684" fill="none" xmlns="http://www.w3.org/2000/svg">
<path opacity="0.1" d="M302.17 684C367.336 684 420.163 673.493 420.163 660.532C420.163 647.572 367.336 637.065 302.17 637.065C237.004 637.065 184.176 647.572 184.176 660.532C184.176 673.493 237.004 684 302.17 684Z" fill="#2A94F4"/>
<path d="M270.007 98.0713C270.007 98.0713 243.3 97.5005 239.62 149.066C235.941 200.631 230.105 217.502 198.449 230.188C166.794 242.873 157.025 284.544 180.37 304.079C203.715 323.614 300.647 389.45 313.081 310.802C325.515 232.154 339.027 263.169 359.327 232.851C395.867 178.305 334.523 106 311.749 101.369C288.975 96.7394 270.007 98.0713 270.007 98.0713Z" fill="#0B4870"/>
<path d="M333.635 218.39L334.269 217.439L334.777 216.678L335.474 215.473L336.934 213.126L339.788 208.496L345.434 199.236L356.726 180.715C364.212 168.347 371.697 156.043 379.183 143.421L379.881 142.216L380.642 140.82C381.149 139.869 381.72 138.854 382.164 137.966C382.989 136.19 383.877 134.414 384.638 132.702C386.161 129.213 387.557 125.788 389.016 122.363C391.743 115.513 394.344 108.727 396.882 101.877C401.957 88.2403 408.998 60.0792 408.998 60.0792L398.404 56.9713C398.404 56.9713 383.687 81.2634 378.168 94.456C375.377 101.052 372.585 107.649 369.667 114.055C368.208 117.289 366.749 120.461 365.227 123.505C364.465 125.091 363.704 126.486 362.943 127.945C362.562 128.643 362.182 129.213 361.864 129.848L361.294 130.799L360.596 131.877C352.793 143.738 344.673 155.789 336.616 167.713L312.764 202.914L312.129 203.866C308.069 209.828 309.655 217.946 315.618 221.942C321.582 226.001 329.702 224.416 333.698 218.454C333.571 218.517 333.635 218.39 333.635 218.39Z" fill="#B97A59"/>
<path d="M408.998 61.8551C408.998 61.8551 414.898 40.988 407.159 32.9329C399.419 24.9412 390.919 31.5375 392.568 40.9245C394.218 50.3116 397.516 60.2694 395.93 64.3287C394.408 68.3245 400.878 69.6565 400.878 69.6565L408.998 61.8551Z" fill="#B97A59"/>
<path opacity="0.5" d="M324.246 206.53C324.817 206.783 329.384 249.279 327.735 255.494C326.339 260.759 319.298 271.414 315.301 276.996C314.223 269.702 313.144 262.471 312.193 255.241L309.719 236.15C309.972 234.818 310.29 233.486 310.607 232.09C315.047 212.111 323.675 206.339 324.246 206.53Z" fill="#F5A171"/>
<path d="M333.191 264.12C331.985 269.194 332.429 314.481 334.015 340.295H266.962C267.977 338.773 278.571 309.597 276.16 302.366C269.499 282.387 255.987 241.858 254.845 237.545C253.323 231.773 255.163 202.407 256.368 201.202C257.573 199.997 279.84 190.863 281.743 191.054C283.646 191.244 303.312 186.106 303.312 186.106L311.622 193.527C312.447 193.718 318.917 191.561 323.358 194.732C323.421 195.113 323.612 195.43 323.865 195.811C329.765 203.739 338.519 237.481 339.154 238.56C340.613 241.287 345.053 254.987 333.191 264.12Z" fill="#FFBE55"/>
<path d="M311.558 193.4L311.622 193.527H274.828C274.765 193.4 274.765 193.21 274.765 193.083C286.183 184.775 272.925 145.006 272.925 141.455C272.925 141.455 303.819 148.558 311.812 156.994C292.337 179.51 311.558 193.4 311.558 193.4Z" fill="#A56950"/>
<path d="M267.913 153.823C266.201 146.148 264.234 138.537 264.234 130.736C264.234 79.107 322.914 95.2806 322.914 116.845C322.914 129.784 324.753 152.998 316.443 168.22C313.144 174.246 306.293 177.354 299.632 175.895C283.265 172.343 270.451 165.239 267.977 154.076L267.913 153.823ZM274.701 217.439L274.321 218.517L273.94 219.342L273.369 220.61L272.291 223.147L270.134 228.158L265.82 238.116L257.193 258.031C251.42 271.351 245.71 284.48 239.747 297.863L239.176 299.132L238.478 300.59C237.971 301.542 237.527 302.557 237.019 303.444C236.068 305.157 235.116 306.933 234.101 308.519C232.135 311.753 230.168 314.925 228.202 318.032C224.205 324.248 220.145 330.274 216.085 336.299C207.902 348.35 188.997 370.359 188.997 370.359L180.306 363.509C180.306 363.509 191.598 337.504 199.211 325.326C202.953 319.238 206.696 313.149 210.312 307.06C212.088 304.015 213.801 300.971 215.451 297.926C216.275 296.404 216.973 294.945 217.734 293.487C218.052 292.789 218.305 292.155 218.623 291.52L219.067 290.506L219.574 289.3C224.776 276.044 229.914 262.471 234.989 249.025L249.897 209.257L250.278 208.179C252.815 201.456 260.301 198.031 267.025 200.568C273.75 203.105 277.175 210.589 274.638 217.312C274.765 217.312 274.701 217.375 274.701 217.439Z" fill="#B97A59"/>
<path d="M190.52 369.344C190.52 369.344 176.881 386.215 165.906 384.566C154.931 382.917 155.375 372.135 164.003 368.075C172.63 364.016 182.653 360.908 185.064 357.293C187.475 353.678 192.233 358.244 192.233 358.244L190.52 369.344Z" fill="#B97A59"/>
<path d="M314.603 333.635C328.877 333.635 333.064 320.76 333.064 320.76L338.963 344.164C335.411 347.145 328.623 345.623 328.306 350.253C326.276 350.38 323.612 350.126 320.186 349.238C300.901 344.227 283.582 342.832 283.582 342.832C283.582 342.832 281.616 336.68 279.967 332.747C278.317 328.815 273.242 320.76 273.242 320.76C273.242 320.76 300.393 333.635 314.603 333.635Z" fill="#F6E8FF"/>
<path d="M374.552 655.902C376.518 655.839 377.026 653.238 375.25 652.414C369.287 649.813 362.753 646.769 359.517 646.388C354.569 645.754 339.978 645.754 339.978 645.754C339.978 645.754 338.456 656.6 339.344 656.6C339.978 656.663 361.801 656.219 374.552 655.902ZM269.69 659.771C271.656 659.708 272.164 657.107 270.388 656.283C264.424 653.682 257.89 650.638 254.655 650.257C249.707 649.623 235.116 649.623 235.116 649.623C235.116 649.623 233.594 660.469 234.482 660.469C235.116 660.532 256.939 660.025 269.69 659.771Z" fill="#0B4870"/>
<path d="M393.139 467.971L333.191 320.696L273.306 320.062C271.276 323.931 255.924 345.242 253.894 364.904C251.991 383.107 281.552 471.46 288.213 496.894C288.404 496.83 235.37 649.687 235.37 649.687L249.707 649.623L315.301 516.873C321.582 505.773 323.929 492.834 321.899 480.276L314.667 386.406C332.302 423.954 362.372 482.306 363.831 485.54C349.177 558.163 339.725 645.691 339.725 645.691L354.442 646.008L395.169 505.139C398.721 492.898 398.024 479.769 393.139 467.971Z" fill="#0E538C"/>
<path d="M272.1 141.328C272.1 145.577 268.992 149.066 265.186 149.066C261.379 149.066 258.271 145.577 258.271 141.328C258.271 137.078 261.379 133.59 265.186 133.59C269.055 133.59 272.1 137.078 272.1 141.328Z" fill="#F5A171"/>
<path d="M281.108 112.025C281.108 112.025 283.519 139.362 265.249 136.254C265.249 136.254 246.028 127.374 265.249 103.082C284.471 78.7898 321.074 97.5639 324.436 113.42C327.798 129.277 322.597 144.309 322.597 144.309C322.597 144.309 326.022 117.036 316.38 111.518C304.263 104.604 297.729 125.218 281.108 112.025Z" fill="#0B4870"/>
<path d="M259.603 150.461C259.032 145.07 262.712 140.884 267.787 141.138C272.862 141.391 277.429 145.958 278 151.413C278.571 156.804 274.892 160.99 269.817 160.736C264.805 160.482 260.174 155.852 259.603 150.461Z" fill="url(#paint0_linear_1_26)"/>
<path d="M266.771 164.478C273.989 164.478 279.84 157.833 279.84 149.637C279.84 141.44 273.989 134.795 266.771 134.795C259.554 134.795 253.703 141.44 253.703 149.637C253.703 157.833 259.554 164.478 266.771 164.478Z" fill="#341675"/>
<path d="M285.232 147.607C285.232 157.692 276.604 165.874 268.04 165.874C259.476 165.874 252.562 157.692 252.562 147.607C252.562 137.522 259.476 129.34 268.04 129.34C276.668 129.34 285.232 137.522 285.232 147.607Z" fill="#A1C9E2"/>
<path d="M266.835 165.874C274.718 165.874 281.109 157.695 281.109 147.607C281.109 137.519 274.718 129.34 266.835 129.34C258.952 129.34 252.562 137.519 252.562 147.607C252.562 157.695 258.952 165.874 266.835 165.874Z" fill="#F7F7F7"/>
<path d="M261.506 131.433C261.506 130.736 262.458 97.437 292.844 94.9C299.378 94.2657 317.458 102.131 317.458 102.131C317.458 102.131 292.844 91.919 278.888 107.649C271.847 115.64 270.134 131.814 270.134 131.814L261.506 131.433Z" fill="#F7F7F7"/>
<path d="M69.2272 557.529L68.8466 486.365H64.9769L65.2941 548.903C62.4394 546.175 58.2525 544.463 53.5582 544.463C44.9307 544.463 37.9525 550.298 37.9525 557.465C37.9525 564.632 44.9307 570.341 53.5582 570.341C62.1222 570.341 69.0369 565.013 69.1638 557.402H69.2907V557.529H69.2272Z" fill="#FFBE55"/>
<path d="M448.266 293.613C446.553 289.364 442.049 286.637 436.721 286.637C433.739 286.637 430.821 287.524 428.41 289.11C426.571 290.315 425.175 291.837 424.097 293.613L424.35 239.701H420.481L420.1 311.056V314.227L422.067 314.29C422.067 314.29 422.701 314.227 423.716 314.227C427.142 314.227 433.676 313.973 438.751 311.817C446.744 308.455 450.931 300.337 448.266 293.613ZM437.165 308.074C432.851 309.914 427.078 310.231 424.287 310.231C424.541 300.907 426.507 295.453 430.694 292.662C432.407 291.52 434.564 290.886 436.657 290.886C440.273 290.886 443.318 292.599 444.333 295.199C446.236 299.766 443.001 305.601 437.165 308.074Z" fill="#0B4870"/>
<path d="M593.982 386.025C600.263 386.025 605.401 389.957 605.401 394.841C605.401 399.725 600.263 403.657 593.982 403.657C587.702 403.657 582.563 399.725 582.563 394.841C582.563 390.021 587.702 386.025 593.982 386.025ZM593.982 381.839C585.355 381.839 578.377 387.674 578.377 394.841C578.377 402.008 585.355 407.843 593.982 407.843C602.61 407.843 609.588 402.008 609.588 394.841C609.588 387.674 602.61 381.839 593.982 381.839ZM225.22 72.2569L224.966 1.15647V0.014801L170.156 6.80137L170.22 15.3004L170.473 69.9736C167.619 67.2463 163.432 65.5338 158.738 65.5338C150.11 65.5338 143.132 71.369 143.132 78.5361C143.132 85.7032 150.11 91.4115 158.738 91.4115C167.302 91.4115 174.216 86.1472 174.343 78.4727V78.5995L174.153 14.8565L221.097 8.76758L221.35 63.6944C218.496 60.9671 214.309 59.2546 209.614 59.2546C200.987 59.2546 194.009 65.0898 194.009 72.2569C194.009 79.4241 200.987 85.1324 209.614 85.1324C218.178 85.1324 225.093 79.868 225.22 72.1935V72.2569Z" fill="#FFBE55"/>
<path d="M524.328 108.029C521.156 106.19 517.223 106.888 515.7 109.488H515.637L501.934 133.4L482.967 125.535L494.829 104.858C495.337 106.507 496.542 108.029 498.255 109.044C501.49 110.883 505.36 110.249 506.946 107.522C508.532 104.858 507.136 101.179 503.901 99.2764C500.729 97.437 496.796 98.1347 495.273 100.735H495.21L479.922 127.438L479.668 127.881L501.681 137.205L503.457 134.034L515.256 113.42C515.764 115.069 516.969 116.592 518.682 117.606C521.917 119.446 525.787 118.812 527.373 116.148C528.959 113.484 527.563 109.932 524.328 108.029ZM88.9563 180.335C85.2769 180.842 82.6759 183.823 83.0566 186.804H82.9931L86.8628 214.141L67.0703 219.532L63.7081 195.938C65.1038 196.952 67.0069 197.396 69.0369 197.143C72.7162 196.635 75.3806 193.718 74.9366 190.61C74.4925 187.502 71.1937 185.472 67.4509 185.98C63.7716 186.487 61.1706 189.468 61.5512 192.449H61.4878L65.865 222.894L65.9284 223.401L89.0831 217.249L88.5122 213.633L85.15 190.166C86.5456 191.181 88.4488 191.625 90.4788 191.371C94.1581 190.863 96.8225 187.946 96.3785 184.901C95.9344 181.857 92.6356 179.827 88.9563 180.335Z" fill="#0B4870"/>
<path d="M544.818 583.533L544.564 512.369V511.164L489.754 518.014L489.818 526.45L490.072 581.187C487.217 578.459 483.03 576.747 478.336 576.747C469.708 576.747 462.73 582.582 462.73 589.749C462.73 596.916 469.708 602.561 478.336 602.561C486.836 602.561 493.751 597.297 493.941 589.622L493.751 533.998L540.695 527.592L540.885 574.844C538.03 572.117 533.843 570.404 529.149 570.404C520.522 570.404 513.544 576.239 513.544 583.407C513.544 590.574 520.522 596.599 529.149 596.599C537.65 596.599 544.564 591.018 544.755 584.041V583.533H544.818ZM493.751 529.875V526.069L540.695 519.981V523.469L493.751 529.875ZM659.45 212.428C653.931 212.428 649.427 216.297 649.3 220.8L649.427 256.89L618.977 261.076L618.85 230.378C620.689 232.154 623.417 233.232 626.462 233.232C632.045 233.232 636.612 229.426 636.612 224.796C636.612 220.103 632.108 216.424 626.462 216.424C620.943 216.424 616.439 220.293 616.312 224.796L616.503 270.844V271.668L652.091 267.228L652.028 261.774L651.837 226.255C653.677 228.031 656.405 229.109 659.45 229.109C665.032 229.109 669.6 225.367 669.6 220.674C669.6 216.17 665.032 212.428 659.45 212.428ZM649.427 259.681V262.154L618.977 266.15V263.93L649.427 259.681ZM43.4081 329.322C37.8891 329.322 33.385 333.191 33.2581 337.694L33.385 373.784L2.93503 377.97L2.80814 347.272C4.64783 349.048 7.37564 350.126 10.4206 350.126C16.0031 350.126 20.5706 346.32 20.5706 341.69C20.5706 336.997 16.0666 333.318 10.4206 333.318C4.90158 333.318 0.39752 337.187 0.270645 341.69L0.460949 387.738V388.562L36.0494 384.122L35.986 378.668L35.7956 343.149C37.6353 344.925 40.3631 346.003 43.4081 346.003C48.9906 346.003 53.5581 342.261 53.5581 337.568C53.5581 333.064 49.0541 329.322 43.4081 329.322ZM33.4485 376.575V379.048L2.99845 383.044V380.824L33.4485 376.575Z" fill="#FFBE55"/>
<defs>
<linearGradient id="paint0_linear_1_26" x1="263.333" y1="98.5806" x2="256.8" y2="230.149" gradientUnits="userSpaceOnUse">
<stop stop-color="#FFAC85"/>
<stop offset="1" stop-color="#FF8E59"/>
</linearGradient>
</defs>
</svg>
